<?xml version="1.0" standalone="no"?>
<!DOCTYPE svg PUBLIC "-//W3C//DTD SVG 20010904//EN"
 "http://www.w3.org/TR/2001/REC-SVG-20010904/DTD/svg10.dtd">
<svg version="1.0" xmlns="http://www.w3.org/2000/svg"
 width="200.000000pt" height="70.000000pt" viewBox="0 0 200.000000 70.000000"
 preserveAspectRatio="xMidYMid meet">
<metadata>
Created by potrace 1.10, written by Peter Selinger 2001-2011
</metadata>
<g transform="translate(0.000000,70.000000) scale(0.100000,-0.100000)"
fill="#000000" stroke="none">
<path d="M132 693 c3 -5 10 -23 17 -41 7 -18 16 -32 20 -30 3 2 44 19 90 38
82 34 83 35 47 38 -24 2 -49 -4 -72 -17 -44 -26 -61 -26 -69 -1 -3 11 -13 20
-22 20 -8 0 -13 -3 -11 -7z"/>
<path d="M455 672 c-27 -14 -97 -45 -155 -69 -58 -23 -95 -43 -82 -43 29 0
255 96 285 121 31 26 11 22 -48 -9z"/>
<path d="M759 578 c44 -68 85 -124 91 -126 6 -2 -1 15 -16 39 -83 134 -135
209 -144 209 -5 0 26 -55 69 -122z"/>
<path d="M806 685 c3 -8 13 -15 21 -15 8 0 11 -4 8 -10 -8 -14 26 -70 43 -70
7 0 11 -4 8 -9 -9 -14 27 -71 43 -71 13 0 13 2 0 13 -38 31 -43 46 -23 69 19
21 19 21 -7 15 -22 -6 -30 -2 -44 19 -14 22 -15 28 -4 35 20 13 24 11 38 -14
7 -13 20 -24 28 -24 14 0 14 2 -1 12 -8 7 -12 16 -8 20 4 5 1 5 -5 1 -18 -10
-16 9 2 28 14 13 13 15 -4 13 -11 -1 -17 -6 -14 -14 4 -9 0 -11 -11 -7 -9 3
-13 11 -10 18 3 6 -1 3 -9 -6 -12 -16 -16 -16 -35 -2 -19 13 -21 13 -16 -1z"/>
<path d="M972 681 c7 -11 15 -18 19 -15 4 2 10 0 14 -6 3 -5 1 -10 -4 -10 -6
0 -13 0 -16 0 -3 0 -16 -10 -30 -22 -28 -24 -31 -44 -10 -72 8 -10 12 -23 8
-29 -3 -6 -1 -7 5 -3 15 9 16 36 1 36 -5 0 -7 5 -3 12 5 7 3 8 -5 4 -8 -6 -11
-2 -9 10 2 11 15 27 31 37 33 20 48 22 41 4 -7 -20 28 -48 46 -37 11 7 11 10
3 11 -7 1 -18 2 -25 3 -6 0 -13 7 -16 15 -3 8 0 11 6 7 6 -3 1 11 -11 33 -14
26 -24 35 -29 28 -6 -9 -8 -9 -8 1 0 6 -5 12 -10 12 -6 0 -5 -8 2 -19z"/>
<path d="M1093 661 c17 -29 18 -33 4 -22 -11 9 -17 10 -17 2 0 -6 5 -11 11
-11 8 0 7 -6 -2 -17 -13 -17 -13 -17 6 -3 11 8 23 19 27 25 9 12 -21 62 -37
62 -8 0 -6 -12 8 -36z"/>
<path d="M1186 689 c2 -4 -8 -17 -23 -29 -22 -18 -23 -19 -3 -6 14 9 35 21 48
26 28 12 28 16 -2 16 -14 0 -23 -3 -20 -7z"/>
<path d="M1066 574 c-110 -68 -194 -124 -187 -124 12 0 64 26 86 43 28 22 260
165 312 192 23 12 24 15 8 14 -11 0 -110 -56 -219 -125z"/>
<path d="M1337 686 c-8 -21 14 -36 188 -126 88 -45 201 -104 251 -131 50 -27
96 -49 101 -49 5 0 17 15 26 33 10 17 31 54 48 81 17 28 24 44 15 37 -22 -19
-20 -7 10 47 l26 47 -31 -34 c-17 -19 -37 -48 -46 -65 -20 -40 -35 -64 -58
-92 -16 -19 -22 -20 -48 -11 -17 7 -27 17 -25 24 3 7 2 12 -2 12 -22 -4 -32 2
-26 14 6 9 5 9 -7 0 -9 -8 -20 -9 -29 -3 -13 8 -13 13 -2 32 l13 23 -19 -22
c-18 -21 -20 -21 -46 -4 -14 10 -23 21 -19 24 3 4 -6 7 -20 7 -15 0 -27 5 -27
11 0 5 -4 7 -10 4 -5 -3 -10 -1 -10 6 0 7 -3 10 -6 6 -3 -3 -24 5 -45 19 -22
14 -44 22 -49 19 -6 -4 -14 4 -19 17 -6 13 -10 17 -11 8 0 -12 -3 -11 -14 3
-8 10 -18 18 -22 17 -5 -1 -10 3 -12 9 -2 6 1 11 8 11 6 0 8 5 5 10 -3 6 -14
10 -23 10 -13 0 -14 -2 -3 -9 11 -7 11 -10 0 -17 -7 -4 -14 -3 -17 4 -2 7 -10
12 -18 12 -8 0 -11 6 -8 15 4 8 2 15 -4 15 -5 0 -12 -6 -15 -14z m577 -236
c-22 -33 -42 -60 -46 -60 -14 0 -8 17 12 35 11 10 20 22 20 27 0 13 43 69 48
63 3 -2 -13 -31 -34 -65z"/>
<path d="M1513 683 c-3 -7 -3 -18 0 -25 3 -7 6 -3 6 10 1 12 6 22 11 22 9 0
14 -14 11 -32 0 -5 6 -8 15 -8 8 0 13 4 9 9 -3 5 4 16 16 25 21 14 20 15 -21
13 -23 -1 -44 -7 -47 -14z"/>
<path d="M1618 693 c7 -3 16 -2 19 1 4 3 -2 6 -13 5 -11 0 -14 -3 -6 -6z"/>
<path d="M1696 685 c-11 -8 -15 -15 -9 -15 6 0 16 7 23 15 16 19 11 19 -14 0z"/>
<path d="M326 645 c-11 -8 -15 -15 -10 -15 6 0 19 7 30 15 10 8 15 14 9 14 -5
0 -19 -6 -29 -14z"/>
<path d="M1800 630 c0 -5 5 -10 11 -10 5 0 7 5 4 10 -3 6 -8 10 -11 10 -2 0
-4 -4 -4 -10z"/>
<path d="M7 600 c6 -8 34 -28 61 -45 32 -19 50 -36 49 -47 -2 -22 -24 -16 -80
19 -20 13 -37 19 -37 14 0 -16 89 -60 120 -59 43 1 38 23 -16 61 -73 51 -110
73 -97 57z"/>
<path d="M1910 595 c-7 -9 -11 -17 -9 -20 3 -2 10 5 17 15 14 24 10 26 -8 5z"/>
<path d="M1730 596 c0 -2 9 -6 20 -9 11 -3 18 -1 14 4 -5 9 -34 13 -34 5z"/>
<path d="M1797 579 c7 -7 15 -10 18 -7 3 3 -2 9 -12 12 -14 6 -15 5 -6 -5z"/>
<path d="M1009 563 c-13 -16 -12 -17 4 -4 16 13 21 21 13 21 -2 0 -10 -8 -17
-17z"/>
<path d="M1677 569 c7 -7 15 -10 18 -7 3 3 -2 9 -12 12 -14 6 -15 5 -6 -5z"/>
<path d="M1839 553 c-13 -16 -12 -17 4 -4 16 13 21 21 13 21 -2 0 -10 -8 -17
-17z"/>
<path d="M1962 417 c-18 -18 -32 -39 -32 -47 0 -15 39 26 60 63 15 25 8 21
-28 -16z"/>
<path d="M475 343 c0 -37 3 -43 22 -43 12 0 24 4 27 9 4 5 -3 7 -14 4 -17 -5
-20 0 -20 31 0 27 3 34 15 30 8 -4 15 -1 15 5 0 6 -10 10 -23 9 -20 -2 -22 -7
-22 -45z"/>
<path d="M567 383 c-4 -3 -7 -24 -7 -45 0 -34 3 -38 25 -38 14 0 25 4 25 9 0
5 -10 7 -22 3 -20 -5 -21 -2 -15 36 5 44 5 46 -6 35z"/>
<path d="M645 344 c0 -38 3 -44 22 -44 12 0 24 4 27 9 4 5 -3 7 -14 4 -17 -5
-20 0 -20 30 0 20 -3 38 -8 41 -4 2 -7 -15 -7 -40z"/>
<path d="M737 383 c-10 -9 -9 -83 1 -83 4 0 7 20 7 45 0 25 0 45 -1 45 0 0 -4
-3 -7 -7z"/>
<path d="M793 383 c-17 -6 -16 -28 2 -43 8 -7 15 -17 15 -22 0 -6 -7 -8 -15
-4 -8 3 -15 1 -15 -4 0 -13 37 -13 45 1 4 6 -3 21 -16 35 -20 21 -19 29 4 25
4 0 7 4 7 9 0 11 -7 12 -27 3z"/>
<path d="M917 372 c-23 -25 -21 -48 5 -66 14 -10 27 -12 38 -6 20 11 34 40 20
40 -6 0 -10 -7 -10 -15 0 -9 -9 -15 -25 -15 -21 0 -25 5 -25 29 0 32 24 48 46
30 9 -7 14 -8 14 -1 0 9 -22 22 -39 22 -4 0 -15 -8 -24 -18z"/>
<path d="M1133 383 c-15 -5 -18 -83 -3 -83 6 0 10 7 10 17 0 15 1 15 18 0 10
-10 23 -17 28 -17 5 0 1 5 -8 11 -13 7 -16 18 -12 38 6 29 -8 43 -33 34z m19
-35 c-9 -9 -12 -7 -12 12 0 19 3 21 12 12 9 -9 9 -15 0 -24z"/>
<path d="M1227 372 c-23 -25 -21 -48 5 -66 23 -16 59 -6 57 17 0 9 -2 9 -6 0
-2 -7 -16 -13 -29 -13 -20 0 -24 5 -24 29 0 32 24 48 46 30 9 -7 14 -8 14 -1
0 9 -22 22 -39 22 -4 0 -15 -8 -24 -18z"/>
<path d="M1325 343 c0 -56 12 -56 16 0 2 25 0 44 -6 44 -5 0 -10 -20 -10 -44z"/>
<path d="M1027 340 c-8 -22 -12 -40 -8 -40 5 0 13 15 18 33 l10 32 13 -32 c6
-18 16 -33 20 -33 5 0 1 18 -8 40 -9 22 -20 40 -23 40 -3 0 -13 -18 -22 -40z"/>
<path d="M1393 341 c-11 -22 -17 -41 -14 -41 4 0 14 15 23 33 l15 32 7 -32 c4
-18 12 -33 17 -33 13 0 11 10 -10 49 l-18 33 -20 -41z"/>
<path d="M500 340 c0 -5 5 -10 10 -10 6 0 10 5 10 10 0 6 -4 10 -10 10 -5 0
-10 -4 -10 -10z"/>
<path d="M1684 323 c2 -16 10 -29 19 -31 15 -3 15 0 1 27 -19 38 -23 39 -20 4z"/>
<path d="M1872 314 c-24 -19 -41 -34 -37 -34 8 0 95 60 95 65 0 11 -17 1 -58
-31z"/>
<path d="M1790 280 c0 -6 -21 -11 -47 -12 -48 -1 -48 -2 -8 -5 48 -5 99 10 72
20 -10 4 -17 2 -17 -3z"/>
<path d="M1660 276 c0 -2 7 -6 15 -10 8 -3 15 -1 15 4 0 6 -7 10 -15 10 -8 0
-15 -2 -15 -4z"/>
<path d="M1893 198 c-11 -13 -41 -53 -67 -90 -35 -50 -43 -68 -32 -68 9 0 19
8 22 18 7 21 9 24 61 101 45 65 49 75 16 39z"/>
<path d="M1520 114 c0 -4 75 -52 87 -56 4 -2 9 0 11 5 1 4 -1 6 -4 5 -3 -2
-10 5 -15 15 -6 9 -14 15 -20 12 -5 -4 -9 -2 -9 3 0 5 -11 12 -25 14 -14 3
-25 4 -25 2z"/>
<path d="M1786 107 c3 -10 9 -15 12 -12 3 3 0 11 -7 18 -10 9 -11 8 -5 -6z"/>
<path d="M1485 70 c-10 -11 -16 -22 -14 -24 2 -2 12 7 22 20 22 29 17 32 -8 4z"/>
<path d="M1760 70 c0 -5 5 -10 10 -10 6 0 10 5 10 10 0 6 -4 10 -10 10 -5 0
-10 -4 -10 -10z"/>
<path d="M1530 60 c0 -5 5 -10 10 -10 6 0 10 5 10 10 0 6 -4 10 -10 10 -5 0
-10 -4 -10 -10z"/>
<path d="M1560 40 c0 -5 5 -10 10 -10 6 0 10 5 10 10 0 6 -4 10 -10 10 -5 0
-10 -4 -10 -10z"/>
<path d="M1630 46 c0 -12 72 -47 87 -43 14 4 13 5 -4 6 -13 0 -23 6 -23 11 0
6 -7 10 -15 10 -8 0 -15 5 -15 10 0 6 -7 10 -15 10 -8 0 -15 -2 -15 -4z"/>
<path d="M1450 20 c0 -6 7 -13 15 -17 24 -9 27 1 5 15 -13 8 -20 8 -20 2z"/>
<path d="M1590 20 c0 -5 5 -10 10 -10 6 0 10 5 10 10 0 6 -4 10 -10 10 -5 0
-10 -4 -10 -10z"/>
</g>
</svg>
